<svg id="Capa_1" enable-background="new 0 0 510 510" height="512" viewBox="0 0 510 510" width="512" xmlns="http://www.w3.org/2000/svg"><g><path d="m295.961 199.695c-8.746-14.362-23.988-22.937-40.776-22.937-13.448 0-25.886 5.44-35.023 15.319-8.17 8.833-12.67 20.331-12.67 32.374 0 26.299 21.396 47.694 47.694 47.694s47.694-21.396 47.694-47.694c0-4.896-.736-9.719-2.188-14.334-1.147-3.643-2.739-7.149-4.731-10.422z"/><path d="m267.302 303.075h-24.234c-26.355 0-50.571 13.253-64.777 35.451-7.936 12.399-12.131 26.734-12.131 41.457v53.124h178.051v-53.124c0-14.722-4.195-29.057-12.131-41.457-14.207-22.198-38.423-35.451-64.778-35.451z"/><ellipse cx="135.185" cy="149.325" rx="72.433" ry="72.433" transform="matrix(.924 -.383 .383 .924 -46.854 63.1)"/><path d="m136.16 379.983c0-20.466 5.831-40.394 16.863-57.629 12.035-18.805 29.242-32.979 49.135-41.193-12.593-11.783-21.261-27.696-23.845-45.555-11.373 9.851-24.971 16.152-43.128 16.152-23.065 0-44.371-7.665-61.512-20.578-22.066 9.376-41.147 25.252-54.558 46.207-12.505 19.539-19.115 42.128-19.115 65.326v59.046h136.16z"/><ellipse cx="374.815" cy="149.325" rx="72.433" ry="72.433" transform="matrix(.707 -.707 .707 .707 4.192 308.771)"/><path d="m490.885 277.388c-13.411-20.955-32.491-36.831-54.558-46.208-17.141 12.914-38.447 20.579-61.511 20.579-18.066 0-31.47-6.79-42.629-17.126-2.405 18.254-11.153 34.533-23.974 46.529 19.893 8.213 37.101 22.388 49.135 41.193 11.032 17.237 16.863 37.165 16.863 57.629v21.775h135.789v-59.046c0-23.197-6.61-45.786-19.115-65.325z"/></g></svg>