<?xml version="1.0" encoding="iso-8859-1"?>
<!-- Generator: Adobe Illustrator 19.0.0, SVG Export Plug-In . SVG Version: 6.00 Build 0)  -->
<svg version="1.1" id="Capa_1" xmlns="http://www.w3.org/2000/svg" xmlns:xlink="http://www.w3.org/1999/xlink" x="0px" y="0px"
	 viewBox="0 0 512 512" style="enable-background:new 0 0 512 512;" xml:space="preserve">
<g>
	<g>
		<path d="M192.009,0c-64.8,0-90.464,56.48-90.464,160c0,125.504,127.936,196,126.912,195.008
			c1.024,0.992-44.128-17.856-78.592-32.864c-52.512,22.368-76,85.248-76,85.248S30.025,508.992,127.209,512
			c97.216,0,142.592-142.752,156.416-190.304C371.209,20.992,192.009,0,192.009,0z"/>
	</g>
</g>
<g>
	<g>
		<path d="M437.609,144.352c-52.736-15.648-121.92,140.256-136.96,174.496c-15.04,34.24-80.288,161.152-34.08,175.808
			c44.864,8,79.328-81.984,83.968-142.656C448.585,246.624,461.577,151.456,437.609,144.352z"/>
	</g>
</g>
<g>
</g>
<g>
</g>
<g>
</g>
<g>
</g>
<g>
</g>
<g>
</g>
<g>
</g>
<g>
</g>
<g>
</g>
<g>
</g>
<g>
</g>
<g>
</g>
<g>
</g>
<g>
</g>
<g>
</g>
</svg>
