<svg id="Layer_3" height="512" viewBox="0 0 32 32" width="512" xmlns="http://www.w3.org/2000/svg" data-name="Layer 3"><path d="m21.386 10c-1.055-4.9-3.305-8-5.386-8s-4.331 3.1-5.386 8z"/><path d="m10 16a30.013 30.013 0 0 0 .267 4h11.466a30.013 30.013 0 0 0 .267-4 30.013 30.013 0 0 0 -.267-4h-11.466a30.013 30.013 0 0 0 -.267 4z"/><path d="m10.614 22c1.055 4.9 3.305 8 5.386 8s4.331-3.1 5.386-8z"/><path d="m23.434 10h6.3a15.058 15.058 0 0 0 -10.449-8.626c1.897 1.669 3.385 4.755 4.149 8.626z"/><path d="m30.453 12h-6.7a32.332 32.332 0 0 1 .247 4 32.332 32.332 0 0 1 -.248 4h6.7a14.9 14.9 0 0 0 0-8z"/><path d="m19.285 30.626a15.058 15.058 0 0 0 10.451-8.626h-6.3c-.766 3.871-2.254 6.957-4.151 8.626z"/><path d="m8.566 22h-6.3a15.058 15.058 0 0 0 10.451 8.626c-1.899-1.669-3.387-4.755-4.151-8.626z"/><path d="m12.715 1.374a15.058 15.058 0 0 0 -10.451 8.626h6.3c.766-3.871 2.254-6.957 4.151-8.626z"/><path d="m8 16a32.332 32.332 0 0 1 .248-4h-6.7a14.9 14.9 0 0 0 0 8h6.7a32.332 32.332 0 0 1 -.248-4z"/></svg>